X Lossless Decoder version 20100123 (115.4)

XLD extraction logfile from 2010-02-03 21:03:46 -0800

Claude VonStroke / Bird Brain

Used drive : MATSHITA DVD-R   UJ-875 (revision DB09)

Use cdparanoia mode     : YES (CDParanoia III 10.2 engine)
Disable audio cache     : OK for the drive with cache less than 2750KB
Make use of C2 pointers : NO
Read offset correction  : 102
Max retry count         : 100

TOC of the extracted CD
     Track |   Start  |  Length  | Start sector | End sector 
    ---------------------------------------------------------
        1  | 00:00:00 | 05:08:12 |         0    |    23111   
        2  | 05:08:12 | 04:59:63 |     23112    |    45599   
        3  | 10:08:00 | 06:55:20 |     45600    |    76744   
        4  | 17:03:20 | 06:28:34 |     76745    |   105878   
        5  | 23:31:54 | 03:49:58 |    105879    |   123111   
        6  | 27:21:37 | 05:30:70 |    123112    |   147931   
        7  | 32:52:32 | 06:52:37 |    147932    |   178868   
        8  | 39:44:69 | 05:39:12 |    178869    |   204305   
        9  | 45:24:06 | 06:38:42 |    204306    |   234197   
       10  | 52:02:48 | 02:39:52 |    234198    |   246174   

Track 01
    Filename : /Users/studio/Desktop/ripped/01 Claude VonStroke - Monster Island.flac

    Pre-gap length : 00:02:00

    CRC32 hash (test run)  : ED5939DA
    CRC32 hash             : ED5939DA
    CRC32 hash (skip zero) : 3EB39C1C
    AccurateRip signature  : 77BD4007
        ->Track not present in AccurateRip database.
    Statistics
        Read error                           : 0
        Skipped (treated as error)           : 0
        Edge jitter error (maybe fixed)      : 0
        Atom jitter error (maybe fixed)      : 0
        Drift error (maybe fixed)            : 0
        Dropped bytes error (maybe fixed)    : 0
        Duplicated bytes error (maybe fixed) : 0
        Inconsistency in error sectors       : 0

Track 02
    Filename : /Users/studio/Desktop/ripped/02 Claude VonStroke - The Greasy Beat feat. Bootsy Collins.flac

    CRC32 hash (test run)  : 2AFA608E
    CRC32 hash             : 2AFA608E
    CRC32 hash (skip zero) : 8E44FC07
    AccurateRip signature  : BDB65557
        ->Track not present in AccurateRip database.
    Statistics
        Read error                           : 0
        Skipped (treated as error)           : 0
        Edge jitter error (maybe fixed)      : 0
        Atom jitter error (maybe fixed)      : 0
        Drift error (maybe fixed)            : 0
        Dropped bytes error (maybe fixed)    : 0
        Duplicated bytes error (maybe fixed) : 0
        Inconsistency in error sectors       : 0

Track 03
    Filename : /Users/studio/Desktop/ripped/03 Claude VonStroke - Vocal Chords.flac

    CRC32 hash (test run)  : 58AF102D
    CRC32 hash             : 58AF102D
    CRC32 hash (skip zero) : 7D070774
    AccurateRip signature  : A3341BEC
        ->Track not present in AccurateRip database.
    Statistics
        Read error                           : 0
        Skipped (treated as error)           : 0
        Edge jitter error (maybe fixed)      : 0
        Atom jitter error (maybe fixed)      : 0
        Drift error (maybe fixed)            : 0
        Dropped bytes error (maybe fixed)    : 0
        Duplicated bytes error (maybe fixed) : 0
        Inconsistency in error sectors       : 0

Track 04
    Filename : /Users/studio/Desktop/ripped/04 Claude VonStroke - Bin 'n Round.flac

    CRC32 hash (test run)  : 39F312DE
    CRC32 hash             : 39F312DE
    CRC32 hash (skip zero) : AB03B051
    AccurateRip signature  : 57248290
        ->Track not present in AccurateRip database.
    Statistics
        Read error                           : 0
        Skipped (treated as error)           : 0
        Edge jitter error (maybe fixed)      : 0
        Atom jitter error (maybe fixed)      : 0
        Drift error (maybe fixed)            : 0
        Dropped bytes error (maybe fixed)    : 0
        Duplicated bytes error (maybe fixed) : 0
        Inconsistency in error sectors       : 0

Track 05
    Filename : /Users/studio/Desktop/ripped/05 Claude VonStroke - Bay Area.flac

    CRC32 hash (test run)  : DF590A89
    CRC32 hash             : DF590A89
    CRC32 hash (skip zero) : 5129707A
    AccurateRip signature  : 2D69BD09
        ->Track not present in AccurateRip database.
    Statistics
        Read error                           : 0
        Skipped (treated as error)           : 0
        Edge jitter error (maybe fixed)      : 0
        Atom jitter error (maybe fixed)      : 0
        Drift error (maybe fixed)            : 0
        Dropped bytes error (maybe fixed)    : 0
        Duplicated bytes error (maybe fixed) : 0
        Inconsistency in error sectors       : 0

Track 06
    Filename : /Users/studio/Desktop/ripped/06 Claude VonStroke - California.flac

    CRC32 hash (test run)  : A72B2FBA
    CRC32 hash             : A72B2FBA
    CRC32 hash (skip zero) : 13C6F790
    AccurateRip signature  : C2D4317B
        ->Track not present in AccurateRip database.
    Statistics
        Read error                           : 0
        Skipped (treated as error)           : 0
        Edge jitter error (maybe fixed)      : 0
        Atom jitter error (maybe fixed)      : 0
        Drift error (maybe fixed)            : 0
        Dropped bytes error (maybe fixed)    : 0
        Duplicated bytes error (maybe fixed) : 0
        Inconsistency in error sectors       : 0

Track 07
    Filename : /Users/studio/Desktop/ripped/07 Claude VonStroke - Aundy.flac

    CRC32 hash (test run)  : 7EE72E4C
    CRC32 hash             : 7EE72E4C
    CRC32 hash (skip zero) : 4017A591
    AccurateRip signature  : 2F7751A4
        ->Track not present in AccurateRip database.
    Statistics
        Read error                           : 0
        Skipped (treated as error)           : 0
        Edge jitter error (maybe fixed)      : 0
        Atom jitter error (maybe fixed)      : 0
        Drift error (maybe fixed)            : 0
        Dropped bytes error (maybe fixed)    : 0
        Duplicated bytes error (maybe fixed) : 0
        Inconsistency in error sectors       : 0

Track 08
    Filename : /Users/studio/Desktop/ripped/08 Claude VonStroke - Beat That Bird.flac

    CRC32 hash (test run)  : 4D50CE6B
    CRC32 hash             : 4D50CE6B
    CRC32 hash (skip zero) : 4E245805
    AccurateRip signature  : DF7AEB99
        ->Track not present in AccurateRip database.
    Statistics
        Read error                           : 0
        Skipped (treated as error)           : 0
        Edge jitter error (maybe fixed)      : 0
        Atom jitter error (maybe fixed)      : 0
        Drift error (maybe fixed)            : 0
        Dropped bytes error (maybe fixed)    : 0
        Duplicated bytes error (maybe fixed) : 0
        Inconsistency in error sectors       : 0

Track 09
    Filename : /Users/studio/Desktop/ripped/09 Claude VonStroke - Storm on Lake St. Claire.flac

    CRC32 hash (test run)  : 85F13421
    CRC32 hash             : 85F13421
    CRC32 hash (skip zero) : 753D4CB5
    AccurateRip signature  : 4FA6D811
        ->Track not present in AccurateRip database.
    Statistics
        Read error                           : 0
        Skipped (treated as error)           : 0
        Edge jitter error (maybe fixed)      : 0
        Atom jitter error (maybe fixed)      : 0
        Drift error (maybe fixed)            : 0
        Dropped bytes error (maybe fixed)    : 0
        Duplicated bytes error (maybe fixed) : 0
        Inconsistency in error sectors       : 0

Track 10
    Filename : /Users/studio/Desktop/ripped/10 Claude VonStroke - Jasper's Baby Robot.flac

    CRC32 hash (test run)  : 51710BDA
    CRC32 hash             : 51710BDA
    CRC32 hash (skip zero) : AB96D48D
    AccurateRip signature  : D52814C7
        ->Track not present in AccurateRip database.
    Statistics
        Read error                           : 0
        Skipped (treated as error)           : 0
        Edge jitter error (maybe fixed)      : 0
        Atom jitter error (maybe fixed)      : 0
        Drift error (maybe fixed)            : 0
        Dropped bytes error (maybe fixed)    : 0
        Duplicated bytes error (maybe fixed) : 0
        Inconsistency in error sectors       : 0

No errors occurred

End of status report
